<svg xmlns="http://www.w3.org/2000/svg" version="1.1" xmlns:xlink="http://www.w3.org/1999/xlink" width="512" height="512" x="0" y="0" viewBox="0 0 128 128" style="enable-background:new 0 0 512 512" xml:space="preserve" class=""><g><path d="M54.241 21.552a2.014 2.014 0 0 0 1.68 2.28c.1.01.2.02.3.02a2.001 2.001 0 1 0-1.98-2.3ZM70.062 23.922a2.008 2.008 0 0 0 1.69 2.28 2.934 2.934 0 0 0 .3.02 2.001 2.001 0 1 0-1.99-2.3ZM62.151 22.742a1.998 1.998 0 0 0 1.68 2.27 1.67 1.67 0 0 0 .31.02 1.997 1.997 0 1 0-1.99-2.29ZM78.122 25.342a2.004 2.004 0 0 0 1.08 3.69 2.035 2.035 0 0 0 1.07-.31 2.003 2.003 0 0 0-2.15-3.38ZM11.52 39.532a2 2 0 1 0-2.39 1.5 1.72 1.72 0 0 0 .44.06 1.996 1.996 0 0 0 1.95-1.56ZM15.09 23.942a1.996 1.996 0 1 0-2.39 1.5 2.316 2.316 0 0 0 .45.05 1.995 1.995 0 0 0 1.94-1.55ZM13.31 31.732a2 2 0 1 0-2.4 1.51 2.283 2.283 0 0 0 .45.05 2.006 2.006 0 0 0 1.95-1.56ZM8.23 44.932a2 2 0 0 0-.89 3.9 1.745 1.745 0 0 0 .45.05 2 2 0 0 0 .44-3.95ZM16.998 19a2.052 2.052 0 0 0 .84-.18 2.002 2.002 0 1 0-1.68-3.636 2.002 2.002 0 0 0 .84 3.816ZM40.1 21.452a1.528 1.528 0 0 0 .3.03 2.05 2.05 0 1 0-.3-.03ZM48.6 18.682a2.002 2.002 0 0 0-.589 3.96 2.953 2.953 0 0 0 .3.02 2 2 0 0 0 .29-3.98ZM30.51 17.992a1.994 1.994 0 0 0 1.68 2.28c.1.01.2.02.3.02a2 2 0 1 0-1.98-2.3ZM22.6 16.812a1.992 1.992 0 0 0 1.68 2.27 1.5 1.5 0 0 0 .29.02 2 2 0 1 0-1.97-2.29ZM49.743 37.47a2 2 0 0 0-2.724-.76l-3.29 1.855-1.943-3.306a2 2 0 0 0-3.449 2.027l1.908 3.245-3.226 1.82a2 2 0 1 0 1.964 3.484l3.29-1.855 1.943 3.306a2 2 0 0 0 3.448-2.027l-1.907-3.245 3.227-1.82a2 2 0 0 0 .76-2.724ZM114.156 79.085a7.119 7.119 0 0 0-8.451-1.211l-1.39-1.39a23.834 23.834 0 1 0-2.818 2.838l1.382 1.383a7.128 7.128 0 0 0 1.209 8.448l11.762 11.762a7.119 7.119 0 0 0 10.068-10.068Zm-14.011-3.943a20 20 0 1 1 0-28.284 19.938 19.938 0 0 1 0 28.284Zm22.945 22.944a3.119 3.119 0 0 1-4.411 0l-11.763-11.762a3.119 3.119 0 0 1 4.411-4.41l11.763 11.762a3.119 3.119 0 0 1 0 4.41Z" fill="#7fcfa8" opacity="1" data-original="#000000" class=""></path><path d="M86.002 47a8.01 8.01 0 0 0-8 8 2 2 0 0 0 4 0 4 4 0 1 1 4 4 2 2 0 0 0-2 2v4a2 2 0 0 0 4 0v-2.253a8 8 0 0 0-2-15.747ZM86.002 69a2 2 0 0 0-2 2v2a2 2 0 0 0 4 0v-2a2 2 0 0 0-2-2ZM8 113h64.002a8.01 8.01 0 0 0 8-8V88.351a27.707 27.707 0 0 1-4-1.19V105a4.005 4.005 0 0 1-4 4H8a4.005 4.005 0 0 1-4-4v-2h52.001a2 2 0 1 0 0-4h-52V59a1.001 1.001 0 0 1 1-1h15.313a1.003 1.003 0 0 1 .733.32l5.487 5.919A1.996 1.996 0 0 0 29.994 63h28.1a28.241 28.241 0 0 1 0-4H27.132l-3.152-3.4a5.017 5.017 0 0 0-3.666-1.6H5a5.006 5.006 0 0 0-5 5v46a8.01 8.01 0 0 0 8 8Z" fill="#7fcfa8" opacity="1" data-original="#000000" class=""></path></g></svg>